<mxfile host="app.diagrams.net" agent="Mozilla/5.0 (Windows NT 10.0; Win64; x64) AppleWebKit/537.36 (KHTML, like Gecko) Chrome/139.0.0.0 Safari/537.36" version="28.1.1">
  <diagram name="페이지-1" id="80Fg47xK7wf6YaaYYlx8">
    <mxGraphModel dx="2747" dy="1265" grid="1" gridSize="10" guides="1" tooltips="1" connect="1" arrows="1" fold="1" page="1" pageScale="1" pageWidth="827" pageHeight="1169" math="0" shadow="0">
      <root>
        <mxCell id="0" />
        <mxCell id="1" parent="0" />
        <mxCell id="8MWYEhg2zfm2Vo6a2qla-4" value="" style="rounded=1;whiteSpace=wrap;html=1;fillColor=none;" vertex="1" parent="1">
          <mxGeometry x="120" y="570" width="620" height="430" as="geometry" />
        </mxCell>
        <mxCell id="8MWYEhg2zfm2Vo6a2qla-5" value="" style="rounded=1;whiteSpace=wrap;html=1;fillColor=none;" vertex="1" parent="1">
          <mxGeometry x="800" y="570" width="230" height="430" as="geometry" />
        </mxCell>
        <mxCell id="8MWYEhg2zfm2Vo6a2qla-6" value="" style="rounded=1;whiteSpace=wrap;html=1;fillColor=none;" vertex="1" parent="1">
          <mxGeometry x="-125" y="570" width="200" height="195" as="geometry" />
        </mxCell>
        <mxCell id="8MWYEhg2zfm2Vo6a2qla-9" value="" style="sketch=0;aspect=fixed;pointerEvents=1;shadow=0;dashed=0;html=1;strokeColor=none;labelPosition=center;verticalLabelPosition=bottom;verticalAlign=top;align=center;fillColor=#00188D;shape=mxgraph.mscae.enterprise.tool;" vertex="1" parent="1">
          <mxGeometry x="-140" y="790" width="50" height="45" as="geometry" />
        </mxCell>
        <mxCell id="8MWYEhg2zfm2Vo6a2qla-10" value="" style="rounded=1;whiteSpace=wrap;html=1;fillColor=none;" vertex="1" parent="1">
          <mxGeometry x="-120" y="805" width="200" height="195" as="geometry" />
        </mxCell>
        <mxCell id="8MWYEhg2zfm2Vo6a2qla-12" value="" style="image;aspect=fixed;html=1;points=[];align=center;fontSize=12;image=img/lib/azure2/azure_ecosystem/Collaborative_Service.svg;" vertex="1" parent="1">
          <mxGeometry x="-140" y="550" width="50.9" height="50" as="geometry" />
        </mxCell>
      </root>
    </mxGraphModel>
  </diagram>
</mxfile>
